<svg xmlns="http://www.w3.org/2000/svg" viewBox="0 0 64 64" width="64" height="64">
  <g id="health_potion" stroke-linecap="round" stroke-linejoin="round">
    <!-- Cork -->
    <rect x="26" y="6" width="12" height="6" rx="2" fill="#C0C0C0" stroke="#909090" stroke-width="1"/>
    <!-- Bottle neck -->
    <path d="M28 12 L28 20 L26 22 L38 22 L36 20 L36 12 Z" fill="#808080" stroke="#606060" stroke-width="1"/>
    <!-- Bottle body -->
    <path d="M22 22 L42 22 L44 26 L44 48 C44 56 36 60 32 60 C28 60 20 56 20 48 L20 26 Z" fill="#808080" stroke="#606060" stroke-width="1.5"/>
    <!-- Liquid (red) -->
    <path d="M24 28 L40 28 L42 30 L42 48 C42 54 36 58 32 58 C28 58 22 54 22 48 L22 30 Z" fill="#E04040" stroke="none"/>
    <!-- Highlight -->
    <line x1="26" y1="32" x2="26" y2="46" stroke="#F06060" stroke-width="1.5" stroke-opacity="0.5"/>
  </g>
</svg>